<svg xmlns="http://www.w3.org/2000/svg" width="67.031" height="55.063" viewBox="0 0 67.031 55.063">
  <defs>
    <style>
      .cls-1 {
        fill: #888;
        fill-rule: evenodd;
      }
    </style>
  </defs>
  <path id="ico-box.svg" class="cls-1" d="M105.234,74.47l-9.62,3.894a1.238,1.238,0,0,1,.619,1.062V92.48a1.252,1.252,0,0,1-.866,1.2L69.549,101.94a1.23,1.23,0,0,1-.374.059,1.282,1.282,0,0,1-.2-0.033,1.233,1.233,0,0,1-.218.033,1.216,1.216,0,0,1-.47-0.094l-19.93-8.264a1.254,1.254,0,0,1-.77-1.161V80.4a1.238,1.238,0,0,1,.623-1.064L39.733,75.9a1.26,1.26,0,0,1-.4-2.062l7.4-7.277a1.215,1.215,0,0,1,1.324-.264l21.577,8.727,0.006,0a1.323,1.323,0,0,1,.707.824c0.01,0.034.037,0.058,0.044,0.093s-0.009.066-.005,0.1a1.192,1.192,0,0,1,.028.142V99.032l23.339-7.471V79.425a1.228,1.228,0,0,1,.067-0.336L83.7,83.185a1.211,1.211,0,0,1-.46.09,1.238,1.238,0,0,1-.81-0.3l-7.559-6.594a1.262,1.262,0,0,1-.413-1.156,1.246,1.246,0,0,1,.762-0.958L96.745,65.55a1.23,1.23,0,0,1,1.27.213l7.569,6.594A1.265,1.265,0,0,1,106,73.513,1.247,1.247,0,0,1,105.234,74.47ZM50.063,80.4V91.64L67.935,99.05V79.157l-5.3,5.216a1.228,1.228,0,0,1-.864.355,1.207,1.207,0,0,1-.46-0.09l-11.311-4.58A1.229,1.229,0,0,1,50.063,80.4ZM47.885,68.93l-5.457,5.364,19.052,7.713,5.462-5.369Zm49.082-.769-18.93,7.664,5.443,4.749,18.939-7.664Zm-1.091-3.05a1.231,1.231,0,0,1-.864.355,1.208,1.208,0,0,1-.46-0.091L72.985,56.654a1.245,1.245,0,0,1-.755-0.919,1.261,1.261,0,0,1,.351-1.144L79.99,47.3a1.211,1.211,0,0,1,1.324-.265l21.567,8.732a1.25,1.25,0,0,1,.756.921,1.263,1.263,0,0,1-.352,1.142ZM81.141,49.666l-5.463,5.376,19.048,7.7,5.462-5.369Zm-11.09,7.5L48.523,65.873a1.208,1.208,0,0,1-.46.091,1.236,1.236,0,0,1-.809-0.3l-7.568-6.589a1.262,1.262,0,0,1-.414-1.156,1.248,1.248,0,0,1,.763-0.957L61.567,48.25a1.219,1.219,0,0,1,1.269.213L70.4,55.052a1.262,1.262,0,0,1,.414,1.156A1.248,1.248,0,0,1,70.051,57.166Zm-8.262-6.3L42.851,58.518l5.45,4.744,18.934-7.657Z" transform="translate(-38.969 -46.938)"/>
</svg>
