<svg xmlns="http://www.w3.org/2000/svg" width="53" height="53" viewBox="0 0 53 53">
  <defs>
    <style>
      .cls-1 {
        fill: #888;
        fill-rule: evenodd;
      }
    </style>
  </defs>
  <path id="ico-add.svg" class="cls-1" d="M72.5,1044A26.5,26.5,0,1,1,99,1017.5,26.5,26.5,0,0,1,72.5,1044Zm0-50.094A23.592,23.592,0,1,0,96.094,1017.5,23.594,23.594,0,0,0,72.5,993.906Zm10.156,25h-8.75v8.75a1.342,1.342,0,0,1-1.344,1.34H72.438a1.342,1.342,0,0,1-1.344-1.34v-8.75h-8.75A1.35,1.35,0,0,1,61,1017.56v-0.12a1.35,1.35,0,0,1,1.344-1.35h8.75v-8.75a1.342,1.342,0,0,1,1.344-1.34h0.125a1.342,1.342,0,0,1,1.344,1.34v8.75h8.75A1.35,1.35,0,0,1,84,1017.44v0.12A1.35,1.35,0,0,1,82.656,1018.91Z" transform="translate(-46 -991)"/>
</svg>
