<svg xmlns="http://www.w3.org/2000/svg" width="46.063" height="55.969" viewBox="0 0 46.063 55.969">
  <defs>
    <style>
      .cls-1 {
        fill: #888;
        fill-rule: evenodd;
      }
    </style>
  </defs>
  <path id="ico-bag.svg" class="cls-1" d="M90.114,290.969H51.878a3.893,3.893,0,0,1-3.916-3.861v-35.6a3.893,3.893,0,0,1,3.916-3.861h8.347v-8.8a3.892,3.892,0,0,1,3.916-3.86h13.7a3.892,3.892,0,0,1,3.916,3.86v8.8h8.353a3.893,3.893,0,0,1,3.916,3.861v35.6A3.893,3.893,0,0,1,90.114,290.969ZM79.151,238.847a1.3,1.3,0,0,0-1.305-1.287h-13.7a1.3,1.3,0,0,0-1.305,1.287v8.8H79.151v-8.8Zm12.269,12.659a1.3,1.3,0,0,0-1.305-1.287H81.761v4.715a1.305,1.305,0,0,1-2.611,0v-4.715H62.836v4.715a1.305,1.305,0,0,1-2.611,0v-4.715H51.878a1.3,1.3,0,0,0-1.305,1.287v35.6a1.3,1.3,0,0,0,1.305,1.287H90.114a1.3,1.3,0,0,0,1.305-1.287v-35.6Z" transform="translate(-47.969 -235)"/>
</svg>
