<svg xmlns="http://www.w3.org/2000/svg" width="58.126" height="57.718" viewBox="0 0 58.126 57.718">
  <defs>
    <style>
      .cls-1 {
        fill: #888;
        fill-rule: evenodd;
      }
    </style>
  </defs>
  <path id="ico-promotions.svg" class="cls-1" d="M79.034,950.951l-4.218.218-24-24s0.47-8.236.771-14.2l-6.41-6.41a7.7,7.7,0,1,1,10.885-10.885l6.237,6.237c5.891-.3,14.555-0.785,14.555-0.785l24,24,0.221,3.779ZM54.14,897.6A4.98,4.98,0,0,0,47.1,904.64l4.664,4.664c0.044-1.024.071-1.785,0.071-2.138,0-3.125,2.189-5.022,5.252-5.022,0.26,0,.948-0.026,1.913-0.07Zm42.818,28.361L75.014,904.014S58.208,905,57.083,905a2.028,2.028,0,0,0-2.1,2.163c0,0.443-.127,2.411-0.3,4.9a4.932,4.932,0,0,0,2.344.765,5.382,5.382,0,1,1,.883,2.7,7.7,7.7,0,0,1-3.437-.521c-0.357,4.925-.769,10.32-0.769,10.32l21.861,21.861,2.6-.106L97,928.249ZM64.845,909.672a7.508,7.508,0,0,1-4.9,5.441,3.672,3.672,0,0,0,5.149-5.236C65.017,909.8,64.927,909.742,64.845,909.672ZM60.9,911.4a4.017,4.017,0,0,0,1.275-2.559,3.633,3.633,0,0,0-3.333,3.775A4.937,4.937,0,0,0,60.9,911.4Zm12.771,21.08-7.686-.533,4.6-5.24-1.566-7.754,7.142,3.021,6.466-3.99-0.619,7.5,5.984,4.862-7.512,1.637L77.693,939Zm9.65-3.17-3.5-2.83,0.365-4.4-3.807,2.338-4.155-1.749,1.153,4.256-2.952,3.307,4.528,0.313,2.349,3.79,1.629-4.074Z" transform="translate(-42.938 -893.438)"/>
</svg>
