<svg xmlns="http://www.w3.org/2000/svg" width="62" height="48" viewBox="0 0 62 48">
  <defs>
    <style>
      .cls-1 {
        fill: #888;
        fill-rule: evenodd;
      }
    </style>
  </defs>
  <path id="ico-store.svg" class="cls-1" d="M99.812,822.738v29.243H77.942c-0.035,0-.07.01-0.107,0.01s-0.071-.007-0.107-0.01H64.51c-0.035,0-.07.01-0.107,0.01s-0.071-.007-0.107-0.01H42.427V822.92a5.845,5.845,0,0,1-2.421-4.721v-2.647h0.075a1.018,1.018,0,0,1,.182-0.419L47.106,804H94.9l6.843,11.134a1.026,1.026,0,0,1,.182.419h0.057V818.2A5.842,5.842,0,0,1,99.812,822.738ZM65.5,849.3H76.492V829.91H65.5V849.3Zm-20.3,0H63.46V827.908H78.532V849.3H96.795v-25.2a5.847,5.847,0,0,1-5.092-.9,5.874,5.874,0,0,1-6.941,0,5.874,5.874,0,0,1-6.941,0,5.875,5.875,0,0,1-6.942,0,5.875,5.875,0,0,1-6.942,0,5.873,5.873,0,0,1-6.941,0,5.876,5.876,0,0,1-6.943,0,5.819,5.819,0,0,1-4.853.964V849.3ZM93.04,806.942H48.732L43.288,816.1h55.2ZM98.9,818.106H42.85v0.555a3.738,3.738,0,0,0,7.2,1.342,3.745,3.745,0,0,0,6.94,0,3.748,3.748,0,0,0,6.943,0,3.747,3.747,0,0,0,6.942,0,3.747,3.747,0,0,0,6.942,0,3.747,3.747,0,0,0,6.942,0,3.747,3.747,0,0,0,6.942,0,3.737,3.737,0,0,0,7.2-1.342v-0.555Zm-44.013,9.679H61.06V842.9H47.826V827.785h7.064ZM49.866,840.9H59.02v-11.11H49.866V840.9Zm35.691-13.111h8.72V842.9H81.044V827.785h4.514ZM83.083,840.9h9.154v-11.11H83.083V840.9Z" transform="translate(-40 -804)"/>
</svg>
