<svg xmlns="http://www.w3.org/2000/svg" width="57.312" height="55.062" viewBox="0 0 57.312 55.062">
  <defs>
    <style>
      .cls-1 {
        fill: #888;
        fill-rule: evenodd;
      }
    </style>
  </defs>
  <path id="ico-checkout-flow.svg" class="cls-1" d="M473.224,843.441v-3.078a8.06,8.06,0,0,1-4.828-2.071,6.6,6.6,0,0,1-1.844-5.211l0.032-.078h4.453a3.979,3.979,0,0,0,.961,3,3.42,3.42,0,0,0,2.445.907,2.953,2.953,0,0,0,2.18-.758,2.756,2.756,0,0,0,.758-2.039,2.945,2.945,0,0,0-.727-2.063,6.661,6.661,0,0,0-2.492-1.484,15.389,15.389,0,0,1-5.149-2.821,5.676,5.676,0,0,1-1.679-4.382,5.832,5.832,0,0,1,1.679-4.305,7.23,7.23,0,0,1,4.524-1.977v-3.359h2.484v3.391a6.646,6.646,0,0,1,4.32,2.3,7.308,7.308,0,0,1,1.54,4.907l-0.047.078h-4.453a4.635,4.635,0,0,0-.758-2.844,2.791,2.791,0,0,0-4.071-.226,3.069,3.069,0,0,0-.656,2.054,2.807,2.807,0,0,0,.7,1.977,7.079,7.079,0,0,0,2.554,1.492,16.42,16.42,0,0,1,5.117,2.906,5.616,5.616,0,0,1,1.664,4.328,5.78,5.78,0,0,1-1.671,4.344,7.389,7.389,0,0,1-4.547,1.922v3.094h-2.485Zm8.195,11.413a27.656,27.656,0,0,1-33.528-15.8l-1.211,6.925a1.482,1.482,0,0,1-1.749,1.171,1.506,1.506,0,0,1-1.184-1.758l1.883-10.762a1.437,1.437,0,0,1,.482-0.8,1.462,1.462,0,0,1,1.527-.66l10.685,3.938a1.491,1.491,0,0,1,1.173,1.741,1.466,1.466,0,0,1-1.732,1.16l-7.565-2.787a24.73,24.73,0,1,0,15.851-32.68c-2.788.845-3.145-1.645-.654-2.4A27.545,27.545,0,1,1,481.419,854.854Z" transform="translate(-443.719 -800.969)"/>
</svg>
