<svg xmlns="http://www.w3.org/2000/svg" width="58.969" height="50.031" viewBox="0 0 58.969 50.031">
  <defs>
    <style>
      .cls-1 {
        fill: #888;
        fill-rule: evenodd;
      }
    </style>
  </defs>
  <path id="ico-taxes.svg" class="cls-1" d="M382.353,855.015a18.652,18.652,0,0,1-15.644-8.513c-0.015,0-.027.008-0.042,0.008-8.521,0-17.283-2.135-19.133-5.782a1.1,1.1,0,0,1-.372-0.817v-5.984a1.086,1.086,0,0,1,.071-0.351c-3.12-1.21-5.21-2.912-5.21-5.089v-6.824c0-.011.006-0.02,0.007-0.032s-0.007-.033-0.007-0.05c0-1.433.919-3.448,5.139-5.1v-4.2c0-.011.006-0.021,0.006-0.032s-0.006-.033-0.006-0.05c0-4.7,9.615-7.23,18.66-7.23s18.661,2.534,18.661,7.23c0,0.017-.006.033-0.006,0.05s0.006,0.021.006,0.032v5.58A18.638,18.638,0,0,1,382.353,855.015Zm-32.965-15.723c0,1.911,6.371,4.752,16.083,4.973a18.446,18.446,0,0,1-1.485-4.695c-6.415-.228-11.764-1.577-14.6-3.613v3.335Zm14.342-3.677c-1,.059-2.022.1-3.047,0.1a46.449,46.449,0,0,1-8.73-.812c2.45,1.215,6.545,2.21,11.787,2.431-0.016-.321-0.049-0.638-0.049-0.963C363.691,836.115,363.719,835.867,363.73,835.615Zm-19.481-7.128c0,2.089,6.252,5,16.434,5,1.1,0,2.2-.046,3.272-0.117a18.491,18.491,0,0,1,1.474-4.81c-1.543.147-3.122,0.245-4.746,0.245-6.4,0-13.072-1.275-16.434-3.681v3.359Zm2.913-9.384v-0.2c-1.82.839-2.913,1.815-2.913,2.677,0,2.089,6.252,5,16.434,5a47.4,47.4,0,0,0,4.818-.26C356.551,826.266,347.162,823.743,347.162,819.1Zm18.66-11.912c-10.182,0-16.434,2.916-16.434,5.006s6.252,5,16.434,5,16.435-2.914,16.435-5S376.006,807.191,365.822,807.191Zm16.435,8.552c-3.361,2.407-10.032,3.681-16.435,3.681s-13.073-1.274-16.434-3.68V819.1c0,2.089,6.252,5,16.434,5,0.879,0,1.736-.033,2.581-0.077a18.607,18.607,0,0,1,13.854-6.3v-1.99Zm0.1,4.209a16.42,16.42,0,1,0,16.436,16.419A16.446,16.446,0,0,0,382.353,819.952Zm5.391,26.053a4.29,4.29,0,0,1-3.174-1.143A3.886,3.886,0,0,1,383.426,842v-1.03a3.907,3.907,0,0,1,1.137-2.861,4.918,4.918,0,0,1,6.314-.006,3.912,3.912,0,0,1,1.13,2.867V842a3.921,3.921,0,0,1-1.124,2.874A4.213,4.213,0,0,1,387.744,846.005Zm1.637-5.04a2.019,2.019,0,0,0-.433-1.3,1.678,1.678,0,0,0-2.47,0,2.042,2.042,0,0,0-.426,1.3V842a1.924,1.924,0,0,0,.467,1.3,1.538,1.538,0,0,0,1.225.541,1.477,1.477,0,0,0,1.258-.5,2.171,2.171,0,0,0,.379-1.343v-1.03Zm-12.343,2.313,9.623-15.214,1.922,1-9.623,15.214Zm1.273-8.235a4.278,4.278,0,0,1-3.167-1.137,3.877,3.877,0,0,1-1.137-2.861v-1.029a3.931,3.931,0,0,1,1.13-2.874,4.918,4.918,0,0,1,6.313-.007,3.943,3.943,0,0,1,1.124,2.881v1.029a3.9,3.9,0,0,1-1.124,2.861A4.214,4.214,0,0,1,378.311,835.043Zm1.637-5.027a2.041,2.041,0,0,0-.433-1.317,1.486,1.486,0,0,0-1.232-.541,1.465,1.465,0,0,0-1.224.541,2.059,2.059,0,0,0-.427,1.317v1.029a1.993,1.993,0,0,0,.433,1.3,1.519,1.519,0,0,0,1.246.528,1.467,1.467,0,0,0,1.211-.528,2.011,2.011,0,0,0,.426-1.3v-1.029Z" transform="translate(-342.031 -804.969)"/>
</svg>
